rec1_001.mot
nRows=22
nColumns=19

name rec1_001.mot
datacolumns 19
datarows 22
range 0.0000000000 0.2100013115
endheader
time	ground_force_vx	ground_force_vy	ground_force_vz	ground_force_px	ground_force_py	ground_force_pz	1_ground_force_vx	1_ground_force_vy	1_ground_force_vz	1_ground_force_px	1_ground_force_py	1_ground_force_pz	ground_torque_x	ground_torque_y	ground_torque_z	1_ground_torque_x	1_ground_torque_y	1_ground_torque_z	
        0.0000000000	       -0.2146934185	        0.0000108787	       -0.3993438667	       -0.6999985329	       -0.0180000000	        0.1600444189	       -7.2646389289	      565.7109569384	       45.6506798583	        0.3026025250	       -0.0180000000	       -0.1408013421	        1.7112803523	       -0.3941424512	        4.4042193366	     -236.5270026538	      -49.7460996926	      567.2366915516	
        0.0099997576	       -0.1800294116	        0.0064354848	       -0.4356454210	       -0.6991388381	       -0.0180000000	        0.1600187421	       -4.5190952797	      561.4559574712	       48.1826924670	        0.2934066843	       -0.0180000000	       -0.1415588850	        1.7823778126	       -0.3213832873	        4.7998537489	     -234.2788139373	      -50.8878362704	      557.8555386420	
        0.0200001953	       -0.2178596740	        0.0656629235	       -0.4354548187	       -0.6913046510	       -0.0180000000	        0.1599951746	       -1.5449225770	      560.4298642006	       49.7107691616	        0.2836524522	       -0.0180000000	       -0.1421665487	        1.8097389346	       -0.3653114467	        4.9494818956	     -233.4878703388	      -50.8968782962	      551.3923552471	
        0.0299999932	       -0.3315779864	        0.2512395169	       -0.4029643982	       -0.6670794831	       -0.0180000000	        0.1599865278	        1.9296745954	      562.7025962038	       49.9673930505	        0.2733716938	       -0.0180000000	       -0.1426693306	        1.7869554265	       -0.6310417054	        4.8708191428	     -234.1536457415	      -49.4107434086	      547.8716188354	
        0.0400002707	       -0.4594916639	        0.6198615642	       -0.3343604985	       -0.6195650133	       -0.0180000000	        0.1599902529	        5.9309962064	      567.4006777770	       49.3457913114	        0.2628188836	       -0.0180000000	       -0.1431084861	        1.7601807070	       -0.9146867473	        4.7210319052	     -235.8766060354	      -46.8059873660	      546.5196948854	
        0.0500000686	       -0.5514086140	        1.1896349760	       -0.2724437589	       -0.5469308379	       -0.0180000000	        0.1599978146	       10.2375401288	      573.2577626982	       48.6284813755	        0.2524219453	       -0.0180000000	       -0.1434845198	        1.7578321851	       -0.9616750470	        4.5439196229	     -238.1145015448	      -43.9655895445	      546.2912099513	
        0.0600004662	       -0.5823778189	        1.9373104043	       -0.2834547151	       -0.4524825515	       -0.0180000000	        0.1600027897	       14.4837379508	      579.4810530691	       48.3038681643	        0.2425552117	       -0.0180000000	       -0.1437909537	        1.7671182704	       -0.7997932726	        4.3788011767	     -240.5334181084	      -41.5105814559	      546.5901015017	
        0.0700002238	       -0.5710732451	        2.8072323249	       -0.3594855486	       -0.3433633355	       -0.0180000000	        0.1600035710	       18.4581882152	      586.1937870211	       48.4881962956	        0.2332362384	       -0.0180000000	       -0.1440279682	        1.7789252734	       -0.6342726002	        4.3391575683	     -243.1840930837	      -39.6424892199	      547.5122705060	
        0.0800006215	       -0.5046538590	        3.7256800309	       -0.4376950997	       -0.2287129537	       -0.0180000000	        0.1600018471	       22.2840957021	      594.1793419503	       49.0877360088	        0.2240651559	       -0.0180000000	       -0.1442160923	        1.8014386254	       -0.5606823345	        4.3996542143	     -246.3829736819	      -38.2120152942	      549.5418767196	
        0.0900004191	       -0.3682303021	        4.6161282346	       -0.4651840111	       -0.1178461045	       -0.0180000000	        0.1599999178	       26.2786114357	      604.0582288666	       49.9252251645	        0.2146287711	       -0.0180000000	       -0.1443893159	        1.8177709298	       -0.5309959252	        4.4296607651	     -250.3711911284	      -36.9042011599	      552.9945119277	
        0.1000008170	       -0.2351167214	        5.4121274248	       -0.4059099839	       -0.0187879161	       -0.0180000000	        0.1599990256	       30.6349590945	      615.8572159690	       50.9001106791	        0.2048714834	       -0.0180000000	       -0.1445505071	        1.8008073605	       -0.5095809639	        4.4226859993	     -255.1598396743	      -35.5616779706	      557.8284899455	
        0.1100005746	       -0.1633741786	        6.0654353916	       -0.3547336294	        0.0626763520	       -0.0180000000	        0.1599991649	       35.2908195225	      629.0661837762	       51.8781035475	        0.1949612826	       -0.0180000000	       -0.1446849206	        1.7676636389	       -0.4603039591	        4.4696909163	     -260.5478887515	      -34.1240897026	      563.6303181452	
        0.1200009322	       -0.1708092929	        6.5491723325	       -0.3841256920	        0.1234154332	       -0.0180000000	        0.1599997251	       40.1963997098	      642.9055772359	       52.7541349837	        0.1851455916	       -0.0180000000	       -0.1447998294	        1.7374049845	       -0.3737714873	        4.5319594959	     -266.2078654857	      -32.5423742892	      569.8070707637	
        0.1300006900	       -0.2341059896	        6.8574451493	       -0.4273766563	        0.1628989364	       -0.0180000000	        0.1600001603	       45.4752910966	      656.8966235152	       53.4040591195	        0.1758068790	       -0.0180000000	       -0.1449283790	        1.7187860488	       -0.2989168698	        4.5795342869	     -271.9209364741	      -30.6411195997	      576.1580448521	
        0.1400010477	       -0.3251580679	        7.0023964697	       -0.4036086248	        0.1827971233	       -0.0180000000	        0.1600002780	       51.1066125290	      671.0121736430	       53.8564894543	        0.1672400682	       -0.0180000000	       -0.1450930338	        1.7296853935	       -0.3100103815	        4.7422263427	     -277.6603239113	      -28.4014000804	      582.8594669323	
        0.1500009254	       -0.4147782986	        7.0095389689	       -0.2958699873	        0.1863720429	       -0.0180000000	        0.1600001715	       56.7327520570	      685.0895851111	       54.5439523354	        0.1593410149	       -0.0180000000	       -0.1453282010	        1.7492502333	       -0.4474693252	        4.9689894224	     -283.3273830137	      -26.3205062754	      589.7265739634	
        0.1600012430	       -0.4363733449	        6.9126700809	       -0.2091760935	        0.1777920145	       -0.0180000000	        0.1600000185	       62.0299890221	      698.4900335835	       55.8151100457	        0.1516376623	       -0.0180000000	       -0.1456630477	        1.7366746029	       -0.5990157923	        4.9698532859	     -288.6297742276	      -24.8688806739	      595.9226473282	
        0.1700010406	       -0.3909694617	        6.7485645104	       -0.2237439871	        0.1614785624	       -0.0180000000	        0.1599999330	       67.1976512984	      710.2602094859	       57.1953514977	        0.1434956712	       -0.0180000000	       -0.1460621031	        1.6995081964	       -0.6371817788	        4.7058527219	     -293.2030973945	      -23.6489357116	      600.2325628163	
        0.1800013984	       -0.3634382078	        6.5514143499	       -0.3015883002	        0.1415633895	       -0.0180000000	        0.1599999308	       72.6556730266	      719.3810473637	       57.9794744078	        0.1344674805	       -0.0180000000	       -0.1464592915	        1.6959070024	       -0.5747277294	        4.5040675723	     -296.6828214629	      -21.8409004082	      601.5228854267	
        0.1900011961	       -0.8080049428	        6.3488988037	       -0.4930933041	        0.1214993880	       -0.0180000000	        0.1599999705	       78.6721451006	      725.3248269790	       58.3554866486	        0.1246604257	       -0.0180000000	       -0.1468014574	        2.0828659086	       -0.2537169559	        5.4079707763	     -298.8877796016	      -19.4319703245	      599.4787366041	
        0.2000017139	       -1.9068357167	        6.1634493924	       -1.3852267503	        0.1038389694	       -0.0180000000	        0.1599575454	       85.3064006037	      728.4559199857	       58.9052373417	        0.1146684824	       -0.0180000000	       -0.1470961810	        4.4529112865	        0.9541433072	       11.5701443360	     -299.9575080000	      -16.8154682155	      594.8873644596	
        0.2100013115	        0.2811513323	        6.0297826334	       -3.8705833431	        0.0901697861	       -0.0180000000	        0.1558879248	       92.6635897739	      729.2156364767	       60.0800919812	        0.1049681482	       -0.0180000000	       -0.1473903189	       12.6017537434	        2.2601080510	       32.6484470278	     -300.0375152208	      -14.2961911797	      588.5338075063	
